HIERARCHY
ROOT Hips
{
	OFFSET 86.025398 -24.216915 94.805092
	CHANNELS 6 Xposition Yposition Zposition Xrotation Yrotation Zrotation
	JOINT spine
	{
		OFFSET 0.000000 -0.448574 7.800591
		CHANNELS 3 Xrotation Yrotation Zrotation
		JOINT spine1
		{
			OFFSET 0.000000 -0.000002 10.136398
			CHANNELS 3 Xrotation Yrotation Zrotation
			JOINT spine2
			{
				OFFSET 0.000000 0.000000 9.712509
				CHANNELS 3 Xrotation Yrotation Zrotation
				JOINT Neck
				{
					OFFSET 0.000000 -1.188875 24.936111
					CHANNELS 3 Xrotation Yrotation Zrotation
					JOINT Head
					{
						OFFSET 0.000000 0.000000 7.533844
						CHANNELS 3 Xrotation Yrotation Zrotation
						End Site
						{
							OFFSET 0.000000 6.014017 18.236099
						}
					}
				}
				JOINT RightShoulder
				{
					OFFSET -4.089653 0.569454 10.488800
					CHANNELS 3 Xrotation Yrotation Zrotation
					JOINT RightArm
					{
						OFFSET 0.000000 -0.000004 13.757004
						CHANNELS 3 Xrotation Yrotation Zrotation
						JOINT RightArmRoll
						{
							OFFSET 0.000000 0.000000 6.944778
							CHANNELS 3 Xrotation Yrotation Zrotation
							JOINT RightForeArm
							{
								OFFSET 0.000000 -0.000004 20.227692
								CHANNELS 3 Xrotation Yrotation Zrotation
								JOINT RightForeArmRoll
								{
									OFFSET 0.000000 -0.000002 7.793121
									CHANNELS 3 Xrotation Yrotation Zrotation
									JOINT RightHand
									{
										OFFSET 0.000000 -0.000002 15.639099
										CHANNELS 3 Xrotation Yrotation Zrotation
										End Site
										{
											OFFSET 0.000000 0.000000 0.100006
										}
									}
								}
							}
						}
					}
				}
				JOINT LeftShoulder
				{
					OFFSET 4.089653 0.569454 10.488800
					CHANNELS 3 Xrotation Yrotation Zrotation
					JOINT LeftArm
					{
						OFFSET 0.000000 -0.000004 13.757004
						CHANNELS 3 Xrotation Yrotation Zrotation
						JOINT LeftArmRoll
						{
							OFFSET 0.000000 0.000000 6.944778
							CHANNELS 3 Xrotation Yrotation Zrotation
							JOINT LeftForeArm
							{
								OFFSET 0.000000 -0.000004 20.227692
								CHANNELS 3 Xrotation Yrotation Zrotation
								JOINT LeftForeArmRoll
								{
									OFFSET 0.000000 -0.000002 7.793121
									CHANNELS 3 Xrotation Yrotation Zrotation
									JOINT LeftHand
									{
										OFFSET 0.000000 -0.000002 15.639099
										CHANNELS 3 Xrotation Yrotation Zrotation
										End Site
										{
											OFFSET 0.000000 0.000000 0.100006
										}
									}
								}
							}
						}
					}
				}
			}
		}
	}
	JOINT RightUpLeg
	{
		OFFSET -6.914162 1.063580 -1.267876
		CHANNELS 3 Xrotation Yrotation Zrotation
		JOINT RightUpLegRoll
		{
			OFFSET 0.000000 -0.000004 18.337799
			CHANNELS 3 Xrotation Yrotation Zrotation
			JOINT RightLeg
			{
				OFFSET 0.000000 0.000004 -22.708496
				CHANNELS 3 Xrotation Yrotation Zrotation
				JOINT RightLegRoll
				{
					OFFSET 0.000000 -0.000004 22.782799
					CHANNELS 3 Xrotation Yrotation Zrotation
					JOINT RightFoot
					{
						OFFSET 0.000000 -0.000002 18.962898
						CHANNELS 3 Xrotation Yrotation Zrotation
						JOINT RightToeBase
						{
							OFFSET 0.000000 -0.000004 15.852005
							CHANNELS 3 Xrotation Yrotation Zrotation
							End Site
							{
								OFFSET 0.006721 0.884892 7.677017
							}
						}
					}
				}
			}
		}
	}
	JOINT LeftUpLeg
	{
		OFFSET 6.914162 1.063580 -1.267876
		CHANNELS 3 Xrotation Yrotation Zrotation
		JOINT LeftUpLegRoll
		{
			OFFSET 0.000000 -0.000004 18.337898
			CHANNELS 3 Xrotation Yrotation Zrotation
			JOINT LeftLeg
			{
				OFFSET 0.000000 -0.000002 22.708397
				CHANNELS 3 Xrotation Yrotation Zrotation
				JOINT LeftLegRoll
				{
					OFFSET 0.000000 -0.000004 22.993393
					CHANNELS 3 Xrotation Yrotation Zrotation
					JOINT LeftFoot
					{
						OFFSET 0.000000 -0.000004 18.752197
						CHANNELS 3 Xrotation Yrotation Zrotation
						JOINT LeftToeBase
						{
							OFFSET 0.000000 -0.000002 15.852005
							CHANNELS 3 Xrotation Yrotation Zrotation
							End Site
							{
								OFFSET -0.030113 0.884892 7.677017
							}
						}
					}
				}
			}
		}
	}
}
MOTION
Frames: 9
Frame Time: 0.041667
78.145706 -21.433311 93.521286 2.473542 -3.035064 51.841450 -1.794127 1.009526 1.176502 0.394216 1.993253 2.375151 2.039140 2.021790 2.350982 9.675009 19.321000 6.069907 -8.196628 -18.836697 5.253203 -6.302312 -42.879378 -5.947213 101.451798 3.381479 114.904559 -0.000023 -0.000003 0.000009 108.197969 -6.017698 2.145643 0.000019 0.000001 -3.000002 -4.999954 -7.999207 -0.000179 -16.730425 74.010093 19.963663 -112.199292 110.654857 99.617510 -0.000001 -0.000026 0.000000 28.759519 6.153264 0.074805 -0.000004 0.000012 3.000002 -5.000169 7.999033 -0.000112 9.759230 190.805173 7.429419 -179.999991 0.000005 -1.159989 162.435436 -0.652110 -0.522413 -0.000003 0.000006 1.051531 77.334551 6.548514 2.554935 30.460987 -6.762809 7.106944 -13.726516 181.917676 6.125133 -0.000004 -0.000005 -1.083649 -13.108357 7.448413 1.018839 -0.000001 -0.000004 -0.123885 72.613947 -7.843528 0.854415 25.456933 7.358521 -0.000005 
78.226799 -21.427710 93.517296 2.558713 -3.001317 52.095659 -1.775600 1.016852 1.188041 0.430931 2.008053 2.398020 2.075852 2.036824 2.373703 9.069906 19.869751 5.981682 -7.898748 -19.449969 5.093814 -6.204193 -42.252547 -5.754068 101.784531 3.957891 115.847385 -0.000026 -0.000005 0.000009 107.589352 -6.144089 2.284469 0.000020 0.000003 -2.999999 -4.999953 -7.999203 -0.000179 -17.211390 74.244710 20.489575 -111.765746 110.823200 99.245647 0.000001 -0.000026 0.000000 28.851627 6.122973 0.078816 -0.000004 0.000012 2.999997 -5.000174 7.999034 -0.000115 9.778082 190.804586 7.429234 -179.999991 0.000004 -1.158997 162.447539 -0.646436 -0.524469 -0.000001 0.000007 1.047910 77.289635 6.549174 2.555411 30.506213 -6.751356 7.177830 -13.778728 182.022151 6.179695 -0.000005 -0.000005 -1.085641 -13.095558 7.452166 1.016585 -0.000001 -0.000004 -0.122187 72.679141 -7.857223 0.903693 25.456933 7.358532 -0.000009 
78.288895 -21.422009 93.520477 2.642078 -2.965259 52.347669 -1.757098 1.024088 1.199531 0.467590 2.022702 2.420827 2.112505 2.051706 2.396356 8.465483 20.404050 5.902528 -7.599255 -20.045997 4.940597 -6.111811 -41.643766 -5.569154 102.096042 4.531677 116.766824 -0.000023 -0.000008 0.000007 106.965018 -6.262898 2.406955 0.000020 0.000001 -3.000000 -4.999953 -7.999204 -0.000178 -17.702923 74.468152 21.025697 -111.331517 110.989386 98.879856 0.000000 -0.000027 0.000001 28.933935 6.097326 0.082133 -0.000007 0.000012 2.999999 -5.000172 7.999033 -0.000115 9.795761 190.800064 7.426124 -179.999991 0.000004 -1.158993 162.460667 -0.639815 -0.526215 -0.000001 0.000006 1.044092 77.242964 6.549844 2.555786 30.553752 -6.739592 7.247917 -13.831456 182.122678 6.231582 -0.000006 -0.000005 -1.087529 -13.082573 7.456543 1.014408 -0.000001 -0.000004 -0.120445 72.742778 -7.870399 0.951456 25.456936 7.358520 -0.000004 
78.360100 -21.412510 93.520096 2.723235 -2.927833 52.597805 -1.738540 1.031375 1.210880 0.504356 2.037461 2.443332 2.149258 2.066675 2.418697 7.863984 20.921196 5.832358 -7.299487 -20.622044 4.793677 -6.024942 -41.056766 -5.392791 102.384563 5.100876 117.654120 -0.000025 -0.000006 0.000007 106.321095 -6.372283 2.509712 0.000019 0.000001 -2.999999 -4.999954 -7.999208 -0.000180 -18.204037 74.679519 21.570924 -110.896823 111.152204 98.521278 -0.000000 -0.000027 0.000000 29.005290 6.077420 0.084569 -0.000005 0.000013 3.000001 -5.000172 7.999034 -0.000111 9.813514 190.793589 7.421516 -179.999991 0.000004 -1.158997 162.475092 -0.633183 -0.527934 -0.000002 0.000009 1.040062 77.194327 6.550583 2.555989 30.604070 -6.727500 7.316902 -13.883800 182.219297 6.281713 -0.000004 -0.000006 -1.089341 -13.069595 7.461131 1.012302 -0.000000 -0.000004 -0.118656 72.804790 -7.882966 0.997408 25.456933 7.358521 -0.000005 
78.398697 -21.378010 93.513878 2.801786 -2.890012 52.846184 -1.719851 1.038822 1.221938 0.541394 2.052539 2.465251 2.186294 2.081984 2.440454 7.267775 21.418814 5.770794 -7.000823 -21.175577 4.653037 -5.943347 -40.495041 -5.225294 102.648488 5.662850 118.499520 -0.000023 -0.000006 0.000009 105.653731 -6.470064 2.591314 0.000020 -0.000001 -2.999999 -4.999952 -7.999209 -0.000180 -18.713433 74.877977 22.124029 -110.461842 111.310336 98.171415 -0.000002 -0.000025 0.000001 29.064859 6.064293 0.085919 -0.000007 0.000012 2.999999 -5.000173 7.999031 -0.000113 9.832576 190.785079 7.416439 -179.999991 0.000005 -1.159000 162.491129 -0.626570 -0.529654 0.000000 0.000006 1.035800 77.143510 6.551397 2.556327 30.657707 -6.715016 7.384507 -13.934768 182.313936 6.330506 -0.000004 -0.000004 -1.091074 -13.056512 7.465568 1.010217 -0.000001 -0.000004 -0.116835 72.865244 -7.894839 1.041574 25.456936 7.358526 -0.000006 
78.467598 -21.372606 93.514984 2.877318 -2.852761 53.093219 -1.700941 1.046538 1.232590 0.578865 2.068184 2.486352 2.223761 2.097850 2.461385 6.679307 21.894260 5.717295 -6.704699 -21.704070 4.518540 -5.866770 -39.962204 -5.066993 102.886336 6.215473 119.296508 -0.000023 -0.000004 0.000007 104.959121 -6.554229 2.647424 0.000021 0.000000 -3.000001 -4.999953 -7.999207 -0.000180 -19.229950 75.062918 22.683815 -110.027142 111.462779 97.831935 0.000001 -0.000028 0.000001 29.111485 6.059035 0.085981 -0.000007 0.000010 2.999997 -5.000174 7.999033 -0.000110 9.854209 190.776500 7.412327 -179.999991 0.000005 -1.159992 162.509038 -0.620898 -0.530660 -0.000001 0.000006 1.031281 77.090399 6.552268 2.556503 30.715047 -6.702124 7.450409 -13.983558 182.406609 6.378869 -0.000004 -0.000006 -1.092780 -13.043411 7.469441 1.008142 -0.000001 -0.000005 -0.114990 72.924079 -7.905897 1.083455 25.456931 7.358524 -0.000006 
78.539200 -21.383615 93.522285 2.949458 -2.817059 53.339088 -1.681731 1.054655 1.242693 0.616935 2.084639 2.506374 2.261831 2.114522 2.481213 6.101125 22.344730 5.671129 -6.412560 -22.204605 4.389983 -5.795015 -39.462084 -4.918240 103.097293 6.755567 120.035015 -0.000022 -0.000003 0.000006 104.233174 -6.622438 2.676725 0.000021 0.000000 -3.000002 -4.999954 -7.999206 -0.000179 -19.751498 75.233263 23.248139 -109.592714 111.608208 97.504133 0.000001 -0.000025 0.000001 29.144345 6.062685 0.084564 -0.000004 0.000012 2.999998 -5.000168 7.999032 -0.000116 9.879630 190.767812 7.410247 -179.999991 0.000005 -1.159991 162.529050 -0.616198 -0.532944 -0.000003 0.000007 1.026510 77.034794 6.553223 2.556734 30.776597 -6.688789 7.514336 -14.029080 182.498311 6.427489 -0.000006 -0.000005 -1.094448 -13.030285 7.472370 1.006036 -0.000001 -0.000004 -0.113122 72.980967 -7.916175 1.123028 25.456935 7.358521 -0.000004 
78.609497 -21.352205 93.517494 3.017823 -2.783880 53.584104 -1.662146 1.063272 1.252132 0.655768 2.102132 2.525045 2.300654 2.132221 2.499699 5.535880 22.767665 5.631336 -6.125986 -22.674756 4.266985 -5.727815 -38.998174 -4.779369 103.280376 7.280309 120.707365 -0.000023 -0.000005 0.000007 103.472455 -6.671963 2.676937 0.000020 0.000004 -3.000000 -4.999955 -7.999209 -0.000178 -20.276648 75.388513 23.815534 -109.158301 111.745399 97.188811 0.000001 -0.000027 0.000003 29.162381 6.076324 0.081491 -0.000007 0.000012 2.999998 -5.000176 7.999034 -0.000114 9.910061 190.759930 7.411423 -179.999991 0.000004 -1.161002 162.551576 -0.613418 -0.534793 -0.000002 0.000008 1.021443 76.976676 6.554217 2.556919 30.842747 -6.674986 7.575995 -14.070657 182.590983 6.476764 -0.000004 -0.000006 -1.096090 -13.017214 7.473968 1.003896 -0.000001 -0.000004 -0.111238 73.036053 -7.925511 1.159927 25.456935 7.358522 -0.000005 
78.695503 -21.398518 93.516685 3.083047 -2.751649 53.828058 -1.642115 1.072449 1.261201 0.695460 2.120724 2.543017 2.340350 2.151035 2.517438 4.978174 23.160004 5.594119 -5.839285 -23.111796 4.147588 -5.664348 -38.573206 -4.649063 103.439240 7.785336 121.324841 -0.000024 -0.000005 0.000008 102.682298 -6.700798 2.652488 0.000020 0.000004 -3.000000 -4.999953 -7.999206 -0.000180 -20.804493 75.526511 24.385102 -108.723163 111.880944 96.891725 0.000000 -0.000027 0.000001 29.156568 6.103910 0.076118 -0.000004 0.000013 3.000000 -5.000178 7.999033 -0.000113 9.944445 190.750941 7.413107 -179.999991 0.000005 -1.162002 162.577190 -0.609687 -0.536325 -0.000001 0.000005 1.016044 76.915191 6.555357 2.557012 30.912190 -6.660713 7.637003 -14.109335 182.680745 6.525073 -0.000004 -0.000006 -1.097669 -13.003740 7.475501 1.001784 -0.000001 -0.000004 -0.109253 73.089356 -7.933967 1.194339 25.456933 7.358528 -0.000005 
